<svg width="107" height="19" viewBox="0 0 107 19" fill="none" xmlns="http://www.w3.org/2000/svg">
<path d="M0.700012 17.9999H6.10001V8.91989H6.60001L12.32 17.9999H18.54V1.19989H13.14V10.2799H12.64L7.06001 1.19989H0.700012V17.9999Z" fill="#3D00B7"/>
<path d="M19.9422 17.9999H25.4822V12.0999H34.6222V8.09989H25.4822V5.81989H35.0422V1.19989H19.9422V17.9999Z" fill="#3D00B7"/>
<path d="M53.9622 1.19989H36.3422V5.81989H42.3822V17.9999H47.9222V5.81989H53.9622V1.19989Z" fill="#3D00B7"/>
<path d="M55.2625 17.9999H70.4025V13.5599H60.8025V11.4199H70.0425V7.77989H60.8025V5.63989H70.4025V1.19989H55.2625V17.9999Z" fill="#3D00B7"/>
<path d="M89.2694 17.9999L86.2694 12.4799C87.6894 11.4799 88.7094 9.87989 88.7094 7.61989C88.7094 3.19989 86.0894 1.19989 81.4294 1.19989H71.8094V17.9999H77.3494V13.6599H81.5494L83.8294 17.9999H89.2694ZM77.3494 5.79989H81.0494C82.4494 5.79989 83.1694 6.47989 83.1694 7.65989C83.1694 8.83989 82.4494 9.51989 81.0494 9.51989H77.3494V5.79989Z" fill="#3D00B7"/>
<path d="M97.7625 18.5599C103.523 18.5799 106.363 16.7599 106.363 13.0999C106.363 8.49989 101.783 8.39989 98.4425 7.83989L96.6625 7.53989C95.3825 7.33989 95.0825 6.75989 95.0825 6.27989C95.0825 5.51989 95.8425 4.95989 97.6825 4.95989C99.8025 4.95989 100.743 5.65989 100.943 6.77989H105.883C105.983 1.97989 102.623 0.639893 97.8025 0.639893C92.4625 0.639893 89.7625 2.67989 89.7625 5.99989C89.7625 10.2999 93.5825 10.6799 96.7625 11.1999L98.9225 11.5399C100.563 11.7799 100.863 12.3399 100.863 12.8799C100.863 13.6599 99.8825 14.2599 97.7625 14.2399C95.3625 14.2199 94.4025 13.5199 94.3425 12.3799H89.3625C89.2225 16.7399 91.9625 18.5399 97.7625 18.5599Z" fill="#3D00B7"/>
</svg>
