<svg width="32" height="32" viewBox="0 0 32 32" fill="none" xmlns="http://www.w3.org/2000/svg">
<rect x="8" y="10" width="16" height="11" fill="white"/>
<path d="M28.7479 14.3181L26.9345 12.2114C26.5879 11.8114 26.3079 11.0647 26.3079 10.5314V8.26471C26.3079 6.85138 25.1479 5.69138 23.7345 5.69138H21.4679C20.9479 5.69138 20.1879 5.41138 19.7879 5.06471L17.6812 3.25138C16.7612 2.46471 15.2545 2.46471 14.3212 3.25138L12.2278 5.07804C11.8278 5.41138 11.0678 5.69138 10.5478 5.69138H8.24114C6.8278 5.69138 5.6678 6.85138 5.6678 8.26471V10.5447C5.6678 11.0647 5.3878 11.8114 5.05447 12.2114L3.25447 14.3314C2.48114 15.2514 2.48114 16.7447 3.25447 17.6647L5.05447 19.7847C5.3878 20.1847 5.6678 20.9314 5.6678 21.4514V23.7314C5.6678 25.1447 6.8278 26.3047 8.24114 26.3047H10.5478C11.0678 26.3047 11.8278 26.5847 12.2278 26.9314L14.3345 28.7447C15.2545 29.5314 16.7612 29.5314 17.6945 28.7447L19.8012 26.9314C20.2012 26.5847 20.9479 26.3047 21.4812 26.3047H23.7479C25.1612 26.3047 26.3212 25.1447 26.3212 23.7314V21.4647C26.3212 20.9447 26.6012 20.1847 26.9479 19.7847L28.7612 17.6781C29.5345 16.7581 29.5345 15.2381 28.7479 14.3181ZM21.5479 13.4781L15.1079 19.9181C14.9212 20.1047 14.6679 20.2114 14.4012 20.2114C14.1345 20.2114 13.8812 20.1047 13.6945 19.9181L10.4678 16.6914C10.0811 16.3047 10.0811 15.6647 10.4678 15.2781C10.8545 14.8914 11.4945 14.8914 11.8811 15.2781L14.4012 17.7981L20.1345 12.0647C20.5212 11.678 21.1612 11.678 21.5479 12.0647C21.9345 12.4514 21.9345 13.0914 21.5479 13.4781Z" fill="#1E93FF"/>
</svg>
